# xmcd CD database file
#
# Track frame offsets:
# 150
# 11287
# 21260
# 31240
# 41860
# 55712
# 67107
# 80177
# 91587
# 100917
# 112415
# 123687
# 135395
# 149725
# 161600
# 171577
# 185284
#
# Disc length: 2612 seconds
# Revision: 2
# Processed by: cddbd v1.5.2PL0 Copyright (c) Steve Scherf et al.
# Submitted via: MusicBin 0.4
#
DISCID=f40a3211
DTITLE=Lefty Frizzell - Look What Thoughts Will Do [CD2]
DYEAR=1997
DGENRE=Country
TTITLE0=I'm an Old, Old Man (Tryin' to Live While I Can)
TTITLE1=I'll Try
TTITLE2=(Honey, Baby, Hurry!) Bring Your Sweet Self Back to Me
TTITLE3=All of Me Loves All of You
TTITLE4=Run 'em Off
TTITLE5=I Love You Mostly
TTITLE6=It Gets Late So Early
TTITLE7=Treat Her Right
TTITLE8=Just Can't Live That Fast (Any More)
TTITLE9=Sick, Sober and Sorry
TTITLE10=You're Humbuggin' Me
TTITLE11=Cigarettes and Coffee Blues
TTITLE12=The Long Black Veil
TTITLE13=Forbidden Lovers
TTITLE14=Don't Let Her See Me Cry
TTITLE15=Saginaw, Michigan
TTITLE16=She's Gone, Gone, Gone
EXTD=
EXTT0=\nYEAR: 1952
EXTT1=\nYEAR: 1953
EXTT2=\nYEAR: 1953
EXTT3=\nYEAR: 1953
EXTT4=\nYEAR: 1953
EXTT5=\nYEAR: 1954
EXTT6=\nYEAR: 1955
EXTT7=\nYEAR: 1955
EXTT8=\nYEAR: 1956
EXTT9=\nYEAR: 1957
EXTT10=\nYEAR: 1958
EXTT11=\nYEAR: 1958
EXTT12=\nYEAR: 1959
EXTT13=\nYEAR: 1962
EXTT14=\nYEAR: 1963
EXTT15=\nYEAR: 1963
EXTT16=\nYEAR: 1965
PLAYORDER=
